<?xml version="1.0" encoding="UTF-8"?><svg id="_レイヤー_2" xmlns="http://www.w3.org/2000/svg" viewBox="0 0 121.89 121.89"><defs><style>.cls-1{fill:#fff;}.cls-2{fill:#1a1a1a;}</style></defs><g id="Capa_1"><circle class="cls-1" cx="60.59" cy="60.29" r="58.73"/><path class="cls-2" d="M60.94,0C27.28,0,0,27.28,0,60.94s27.28,60.94,60.94,60.94,60.94-27.28,60.94-60.94S94.61,0,60.94,0Zm0,112.37c-28.4,0-51.42-23.02-51.42-51.42S32.54,9.52,60.94,9.52s51.42,23.02,51.42,51.42-23.02,51.42-51.42,51.42Z"/><path class="cls-2" d="M75.41,51.62h-10.6v-7.74c0-2.37,2.45-2.92,3.6-2.92h6.85v-10.44l-7.85-.04c-10.71,0-13.15,7.79-13.15,12.78v8.37h-7.77v10.76h7.77v29.04h10.55v-29.04h8.96l1.64-10.76Z"/></g></svg>