<?xml version="1.0" encoding="UTF-8"?><svg id="_レイヤー_2" xmlns="http://www.w3.org/2000/svg" viewBox="0 0 121.89 121.89"><defs><style>.cls-1{fill:#fff;}.cls-2{fill:#1a1a1a;}</style></defs><g id="Capa_1"><g><circle class="cls-1" cx="62.81" cy="60.23" r="57.01"/><g><path class="cls-2" d="M91.86,61c0,4.32-.12,8.65,.02,12.97,.3,8.3-5.68,15.23-13.58,17.21-1.54,.4-3.19,.63-4.77,.65-8.38,.06-16.75,.14-25.13,0-6.99-.12-12.49-3.09-16.22-9.13-1.43-2.32-2.14-4.89-2.14-7.62-.02-9.41-.1-18.81,.02-28.2,.08-6.14,3.15-10.67,8.24-13.92,3.17-2.02,6.67-2.93,10.42-2.93,8.18-.02,16.36-.1,24.53,.02,7.21,.1,12.91,3.11,16.61,9.45,1.33,2.28,2,4.79,2,7.47-.02,4.67,0,9.37,0,14.04Zm-57.27-.04v13.56c0,1.8,.34,3.54,1.19,5.15,2.73,5.15,7.21,7.48,12.85,7.56,8.18,.12,16.38,.06,24.55,0,1.41,0,2.83-.24,4.2-.59,5.45-1.47,10.08-6.18,9.92-13.09-.2-8.71-.04-17.43-.04-26.14,0-1.92-.36-3.74-1.29-5.43-2.79-5.01-7.25-7.29-12.79-7.37-8.16-.12-16.3-.08-24.45,0-1.62,.02-3.29,.32-4.85,.79-5.33,1.64-9.52,6.38-9.31,12.75,.14,4.28,.02,8.53,.02,12.79Z"/><path class="cls-2" d="M60.89,46.61c8.06-.02,14.59,6.42,14.59,14.34-.02,7.88-6.53,14.32-14.51,14.34-8.04,.02-14.55-6.4-14.55-14.36s6.46-14.3,14.47-14.32Zm0,4.59c-5.43,.02-9.9,4.44-9.88,9.76,.02,5.33,4.48,9.7,9.94,9.72,5.45,0,9.92-4.38,9.94-9.7-.02-5.41-4.51-9.8-10-9.78Z"/><path class="cls-2" d="M80.95,44.53c.04,1.68-1.35,3.17-2.99,3.23-1.68,.06-3.13-1.37-3.15-3.13-.02-1.72,1.31-3.17,2.95-3.23,1.68-.06,3.15,1.39,3.19,3.13Z"/></g><path class="cls-2" d="M60.94,0C27.28,0,0,27.28,0,60.94s27.28,60.94,60.94,60.94,60.94-27.28,60.94-60.94S94.61,0,60.94,0Zm0,112.37c-28.4,0-51.42-23.02-51.42-51.42S32.54,9.52,60.94,9.52s51.42,23.02,51.42,51.42-23.02,51.42-51.42,51.42Z"/></g></g></svg>