<?xml version="1.0" encoding="UTF-8"?><svg id="_レイヤー_2" xmlns="http://www.w3.org/2000/svg" viewBox="0 0 121.89 121.89"><defs><style>.cls-1{fill:#fff;}.cls-2{fill:#1a1a1a;}</style></defs><g id="Capa_1"><g><circle class="cls-1" cx="60.66" cy="61.14" r="58.47"/><path class="cls-2" d="M60.94,0C27.28,0,0,27.28,0,60.94s27.28,60.94,60.94,60.94,60.94-27.28,60.94-60.94S94.61,0,60.94,0Zm0,112.37c-28.4,0-51.42-23.02-51.42-51.42S32.54,9.52,60.94,9.52s51.42,23.02,51.42,51.42-23.02,51.42-51.42,51.42Z"/><path class="cls-2" d="M82.92,44.91c1.13-.58,3.84-2.32,5.11-6.04,0,0-3.08,2.22-7.26,2.49l-.08,.04c-2.14-2.34-5.22-3.8-8.64-3.8-6.48,0-11.73,5.25-11.73,11.73,0,.98,.12,1.94,.35,2.85l-.06-.08s-12.56,.72-24.4-12.23c0,0-5.24,8.9,3.73,15.7-1.96,.33-5.43-1.44-5.43-1.44,0,0,.2,9.35,9.49,11.64-1.5,.39-4.32,.52-5.23,.13,0,0,1.37,7.13,10.86,8.37-2.42,1.37-6.93,5.56-17.14,4.78,0,0,7.33,6.02,20.94,5.17,13.61-.85,23.49-10.01,27.48-19.69,3.99-9.68,2.88-15.19,2.88-15.19,0,0,3.33-1.75,5.63-5.94-1.06,.32-4.99,1.28-6.45,1.63-.01-.03-.03-.07-.04-.1Z"/></g></g></svg>