<svg xmlns="http://www.w3.org/2000/svg" width="74.696" height="89.647" viewBox="0 0 74.696 89.647">
  <g id="OBJECTS" transform="translate(-9.471 -38.733)">
    <g id="グループ_12" data-name="グループ 12" transform="translate(9.471 38.733)">
      <g id="グループ_9" data-name="グループ 9">
        <path id="パス_21" data-name="パス 21" d="M446.03,420.717a37.766,37.766,0,0,1-15.952,30.91c-.935.659-1.9,1.278-2.894,1.854a36.9,36.9,0,0,1-15.547,4.835c-.768.058-1.546.1-2.332.1-.206.017-.413.017-.619.017a37.779,37.779,0,0,1-16.655-71.482A36.833,36.833,0,0,1,408.686,383,37.533,37.533,0,0,1,446.03,420.717Z" transform="translate(-371.334 -383)" fill="#1a1a1a"/>
        <path id="パス_22" data-name="パス 22" d="M428.41,450.934c-.935.66-1.9,1.278-2.894,1.855a36.889,36.889,0,0,1-15.547,4.838c-.769.058-1.546.1-2.332.1-3.133-6.852-7.582-13.236-9.434-14-2-.819-6.054,1.112-9.535.519s-2.191-6.017-2.44-7.07-1.4-.936-1.819-1.788.984-1.747.984-1.747c-2.63-.969-2.05-1.629-1.612-3.8s-.216-1.721-3.077-3.034-.075-4.862,1.952-7.9a8.307,8.307,0,0,0,1.406-5.625,7.572,7.572,0,0,1-4.25-1.462,7.46,7.46,0,0,0,4.225.828c-.065-1.321-.2-2.917-.3-5-.306-6.376,4.218-13.722,4.218-13.722,13.5-13.036,31.968-6.635,37.237,0s2.44,25.822,1.9,28.83-4.449,11.808-3.458,18.125C424.068,443.614,426.161,447.45,428.41,450.934Z" transform="translate(-369.666 -382.312)" fill="#fff"/>
        <path id="パス_23" data-name="パス 23" d="M443.85,420.717a37.745,37.745,0,0,1-15.29,30.426c-.133.108-.272.208-.413.309q-1.514,1.09-3.142,2.029a36.9,36.9,0,0,1-15.547,4.835c-2.977-6.648-1.637-15.694,1.381-20.471,4.862-7.684,4.226-24.245-9.22-24.956s-19.209-7.533-19.209-7.533c-1.9-8.736,2.96-14.816,7.442-18.407.182-.092.364-.184.546-.259v-.009c1.05-.51,2.134-.969,3.242-1.386a36.783,36.783,0,0,1,5.45-1.554c.918-.184,1.843-.343,2.778-.46a38.635,38.635,0,0,1,4.639-.284,37.356,37.356,0,0,1,34.607,23.527c.372.919.7,1.846,1,2.8A38.074,38.074,0,0,1,443.85,420.717Z" transform="translate(-369.154 -383)" fill="#1a1a1a"/>
        <path id="パス_24" data-name="パス 24" d="M431.761,434.54a45.739,45.739,0,0,1-2.953,12.261c-.512,1.363-1.075,2.7-1.678,4.023-.133.108-.272.208-.413.309q.931-2.208,1.7-4.475a45.1,45.1,0,0,0,2.514-12.177,25.726,25.726,0,0,0-2.118-12,27.756,27.756,0,0,0-7.426-9.551,53.219,53.219,0,0,0-10.221-6.707c-1.828-.937-3.671-1.831-5.556-2.651l-2.87-1.288c-.951-.476-1.911-.92-2.836-1.463a30.994,30.994,0,0,1-5.35-3.688,17.828,17.828,0,0,1-4.235-5.261,12.42,12.42,0,0,1-1.356-5.586v-.009c1.05-.511,2.134-.97,3.242-1.388-.033.15-.058.3-.082.451a9.175,9.175,0,0,0,.793,5.244c1.6,3.362,4.8,6,8.228,8.062.843.535,1.753,1,2.638,1.48l2.77,1.355q2.841,1.354,5.59,2.9a55.131,55.131,0,0,1,10.337,7.292,29.214,29.214,0,0,1,7.468,10.3A26.817,26.817,0,0,1,431.761,434.54Z" transform="translate(-367.724 -382.613)" fill="#fff"/>
        <path id="パス_25" data-name="パス 25" d="M439.206,409.018c-.8-.828-1.646-1.622-2.513-2.366a45.871,45.871,0,0,0-6.839-4.631l-1.844-.91c-.313-.148-.612-.313-.925-.446l-.96-.389-1.909-.769-1.96-.62c-1.29-.454-2.654-.7-3.978-1.025l-4.176-1.025a40.675,40.675,0,0,1-8.062-3.341,25.2,25.2,0,0,1-9.857-9.808c.918-.182,1.843-.34,2.778-.455a21.01,21.01,0,0,0,2.241,2.9,26.236,26.236,0,0,0,6.227,4.969,37.4,37.4,0,0,0,7.417,3.274l3.994,1.091c1.381.413,2.786.736,4.126,1.282l2.026.745,1.969.9.983.447c.323.157.629.347.952.521l1.885,1.042a41.582,41.582,0,0,1,6.822,5.226c.206.2.4.4.6.612C438.578,407.156,438.909,408.074,439.206,409.018Z" transform="translate(-366.247 -382.952)" fill="#fff"/>
      </g>
      <g id="グループ_11" data-name="グループ 11" transform="translate(10.146 78.553)">
        <g id="グループ_10" data-name="グループ 10">
          <path id="パス_26" data-name="パス 26" d="M379.839,458.485c0-.2.049-.835.049-1.6,0-1.153-.133-2.072-.133-2.24a.123.123,0,0,1,.133-.134c.084,0,.118.034.169.184.818,1.921,1.837,3.709,4.277,3.709,1.487,0,2.355-.818,2.355-2.055,0-1.119-.635-1.754-2.573-2.223L383,453.841c-2.155-.518-3.124-1.537-3.124-3.108,0-2.038,1.888-3.091,3.776-3.091,1.871,0,2.69.836,3.225.836.284,0,.317-.218.351-.518.034-.218.067-.3.184-.3a.133.133,0,0,1,.151.151c0,.134,0,.919.049,1.52.049.567.217,1.771.217,1.872,0,.066-.066.1-.133.1s-.134-.033-.169-.151c-.717-1.72-1.77-3.275-3.809-3.275-1.4,0-2.2.736-2.2,1.789,0,1.085.785,1.553,2.272,1.92l1.437.369c2.122.517,3.207,1.4,3.207,3.207,0,2.306-2,3.509-4.16,3.509-1.888,0-2.99-.8-3.591-.8-.267,0-.452.134-.552.6-.017.134-.051.2-.151.2S379.839,458.635,379.839,458.485Z" transform="translate(-379.756 -447.575)" fill="#fff"/>
          <path id="パス_27" data-name="パス 27" d="M402.4,447.863c.752,0,1.619-.083,1.77-.083.067,0,.118.034.118.1,0,.1-.084.134-.367.2-.535.2-.618.467-.618,3.374v2.607c0,3.559.049,3.876.6,4.126.2.068.4.117.4.217,0,.067-.033.1-.117.1-.167,0-1.353-.117-2.289-.117-.785,0-1.8.117-1.954.117-.1,0-.117-.034-.117-.1,0-.1.1-.1.351-.251.667-.4.7-.952.7-3.977,0-3.542-.016-4.912-.016-5.4,0-.167-.018-.2-.051-.2s-.051.033-.134.2c-.167.384-.652,1.6-1.7,4.16-.852,2.055-1.7,4.094-2.238,5.414-.084.2-.151.217-.184.217-.049,0-.083-.017-.167-.2l-4.109-8.905c-.051-.117-.067-.134-.1-.134s-.051.017-.051.083c-.034,1.7-.051,3.359-.051,5.062,0,3.325.184,3.342,1.354,3.676.249.067.351.117.351.218,0,.083-.049.117-.134.117-.2,0-1.2-.1-1.788-.1-.467,0-1.37.1-1.537.1-.1,0-.134-.034-.134-.117,0-.068.051-.1.284-.167,1.136-.284,1.353-.418,1.353-3.792v-4.879c0-.985-.2-1.236-.969-1.419-.167-.034-.267-.084-.267-.168,0-.1.051-.134.134-.134.134,0,1,.049,1.637.049.585-.017,1.17-.066,1.371-.066.217,0,.351.049.484.334l2.873,6.433c.367.8.418.969.467.969s.1-.167.452-1l2.539-6.183c.168-.417.3-.551.652-.551S401.849,447.863,402.4,447.863Z" transform="translate(-377.621 -447.546)" fill="#fff"/>
          <path id="パス_28" data-name="パス 28" d="M405.888,458.4c0-.1.066-.134.3-.235.584-.234.6-.7.6-5.062,0-4.294-.017-4.778-.6-5.03-.235-.083-.3-.1-.3-.2a.106.106,0,0,1,.117-.117c.151,0,1.153.117,2,.117.836,0,1.838-.117,2.006-.117a.106.106,0,0,1,.117.117c0,.1-.084.117-.318.2-.584.252-.584.736-.584,5.03,0,4.361,0,4.829.584,5.062.234.1.318.134.318.235,0,.066-.034.1-.117.1-.167,0-1.2-.117-2.006-.117-.819,0-1.854.117-2,.117C405.922,458.5,405.888,458.462,405.888,458.4Z" transform="translate(-374.406 -447.552)" fill="#fff"/>
          <path id="パス_29" data-name="パス 29" d="M417.53,447.752c.083,0,.117.034.117.1,0,.1-.1.118-.384.252-.535.249-.552.635-.552,5.262,0,3.542.034,4.009.217,4.344.2.335.669.434,1.588.434,1.62,0,2.856-.635,3.425-3.641.017-.169.066-.218.151-.218s.117.049.1.218c-.151,1.269-.317,2.372-.317,3.107,0,.667.368.618.368.8,0,.067-.034.1-.118.1-.383,0-2.071-.084-4.109-.084-2.289,0-4.111.067-4.478.067-.084,0-.117-.034-.117-.1s.083-.084.3-.217c.519-.267.552-.6.552-4.813,0-4.627,0-5-.535-5.262-.234-.118-.317-.151-.317-.252,0-.066.032-.1.117-.1.134,0,.936.117,1.871.117C416.378,447.869,417.329,447.752,417.53,447.752Z" transform="translate(-372.864 -447.552)" fill="#fff"/>
          <path id="パス_30" data-name="パス 30" d="M423.754,458.413c0-.084.049-.117.2-.151.718-.183.969-.518,1.52-1.972.869-2.338,2.106-5.763,2.59-7.2a2.051,2.051,0,0,0,.117-.4c0-.083-.068-.134-.435-.267-.251-.066-.334-.1-.334-.2,0-.083.066-.134.2-.134a16.338,16.338,0,0,0,3.108-.5.123.123,0,0,1,.134.134c0,.1-.151.166-.151.351a1.661,1.661,0,0,0,.1.451c.635,1.838,2.089,5.815,3.008,8.137.383.987.6,1.337,1.052,1.52.3.1.435.151.435.252,0,.066-.067.1-.151.1-.217,0-1.4-.1-2.44-.1-.919,0-2.088.1-2.255.1-.1,0-.166-.034-.166-.1,0-.134.083-.118.283-.184.618-.183.735-.467.735-.735a10.989,10.989,0,0,0-.618-2.256c-.083-.217-.151-.283-.351-.3q-.627-.051-2.255-.051c-.852,0-1.4.017-1.6.034-.167.017-.2.049-.251.167-.234.685-.384,1.17-.484,1.52a2.6,2.6,0,0,0-.117.685c0,.484.3.752.969.935.184.051.251.083.251.167s-.049.117-.151.117c-.149,0-1.019-.1-1.6-.1-.434,0-1.052.1-1.17.1C423.82,458.53,423.754,458.5,423.754,458.413Zm2.823-3.86c.151.017.719.034,1.638.034.935,0,1.788-.017,2.022-.049.1-.018.149-.067.149-.134a.468.468,0,0,0-.033-.151c-.635-1.8-1.354-3.844-1.755-5.013-.1-.251-.116-.3-.151-.3s-.066.051-.116.234c-.569,1.554-1.236,3.442-1.822,5.1a1.693,1.693,0,0,0-.051.2C426.46,454.5,426.477,454.537,426.577,454.553Z" transform="translate(-370.749 -447.586)" fill="#fff"/>
        </g>
      </g>
    </g>
  </g>
</svg>
