<?xml version="1.0" encoding="UTF-8"?><svg id="_レイヤー_2" xmlns="http://www.w3.org/2000/svg" viewBox="0 0 64.6 104.7"><defs><style>.cls-1,.cls-2{fill:#fff;}.cls-3{fill:none;}.cls-3,.cls-2{stroke:#000;stroke-miterlimit:10;}.cls-4{fill:#1a1a1a;}</style></defs><g id="_レイヤー_1-2"><g id="_グループ_13"><g id="BACKGROUND"><rect id="_長方形_5" class="cls-3" x="3.7" y="3.8" width="60.4" height="100.4"/><rect id="_長方形_6" class="cls-3" x=".5" y=".5" width="60.4" height="100.4"/></g><g id="OBJECTS"><g id="_グループ_12"><g id="_グループ_9"><path id="_パス_21" class="cls-4" d="M52.93,65.18c0,6.8-3.3,13.1-8.9,17-.5,.4-1.1,.7-1.6,1-2.7,1.5-5.6,2.4-8.7,2.7-.4,0-.9,.1-1.3,.1h-.3c-11.5,0-20.8-9.3-20.8-20.8s9.3-20.8,20.8-20.8c11.5,0,20.8,9.3,20.8,20.8Z"/><path id="_パス_22" class="cls-1" d="M44.13,82.18c-.5,.4-1.1,.7-1.6,1-2.7,1.5-5.6,2.4-8.7,2.7-.4,0-.9,.1-1.3,.1-1.7-3.8-4.2-7.3-5.2-7.7-1.1-.5-3.4,.6-5.3,.3s-1.2-3.3-1.4-3.9-.8-.5-1-1,.5-1,.5-1c-1.5-.5-1.1-.9-.9-2.1s-.1-.9-1.7-1.7,0-2.7,1.1-4.4c.6-.9,.9-2,.8-3.1-.9,0-1.7-.3-2.4-.8,.7,.4,1.5,.5,2.4,.5,0-.7-.1-1.6-.2-2.8-.2-3.5,2.3-7.6,2.3-7.6,7.5-7.2,17.8-3.7,20.7,0,2.9,3.7,1.4,14.2,1.1,15.9s-2.5,6.5-1.9,10c.6,2.1,1.5,4,2.7,5.6Z"/><path id="_パス_23" class="cls-4" d="M52.93,65.18c0,6.6-3.2,12.9-8.5,16.8-.1,.1-.2,.1-.2,.2-.6,.4-1.1,.8-1.7,1.1-2.7,1.5-5.6,2.4-8.7,2.7-1.5-3.7-1.2-7.8,.8-11.3,2.7-4.2,2.4-13.4-5.1-13.8-7.5-.4-10.7-4.2-10.7-4.2-1.1-4.8,1.6-8.2,4.1-10.1,.1-.1,.2-.1,.3-.1h0c.6-.3,1.2-.5,1.8-.8,1-.4,2-.6,3-.9,.5-.1,1-.2,1.5-.3,.9-.1,1.7-.2,2.6-.2,8.5,0,16.1,5.1,19.3,13,.2,.5,.4,1,.6,1.5,.6,2.2,.9,4.3,.9,6.4Z"/><path id="_パス_24" class="cls-1" d="M47.03,72.98c-.2,2.3-.8,4.6-1.6,6.7-.3,.8-.6,1.5-.9,2.2-.1,.1-.2,.1-.2,.2,.3-.8,.7-1.6,.9-2.5,.8-2.2,1.2-4.4,1.4-6.7,.1-2.3-.3-4.5-1.2-6.6-1-2-2.4-3.8-4.1-5.3-1.7-1.4-3.7-2.7-5.7-3.7-1-.5-2-1-3.1-1.5l-1.6-.7c-.5-.3-1.1-.5-1.6-.8-1.1-.6-2.1-1.3-3-2-1-.8-1.8-1.8-2.4-2.9-.5-1-.7-2-.8-3.1h0c.6-.3,1.2-.5,1.8-.8v.2c-.1,1,0,2,.4,2.9,1.1,1.9,2.7,3.4,4.6,4.4,.5,.3,1,.5,1.5,.8l1.5,.7c1.1,.5,2.1,1,3.1,1.6,2.1,1.1,4,2.5,5.8,4,1.8,1.6,3.2,3.5,4.2,5.7,.9,2.5,1.2,4.9,1,7.2Z"/><path id="_パス_25" class="cls-1" d="M52.03,58.88c-.4-.5-.9-.9-1.4-1.3-1.2-1-2.5-1.8-3.8-2.6l-1-.5c-.2-.1-.3-.2-.5-.2l-.5-.2-1.1-.4-1.1-.3c-.8-.4-1.5-.5-2.3-.7l-2.3-.6c-1.6-.5-3.1-1.1-4.5-1.9-2.3-1.3-4.2-3.2-5.5-5.5,.5-.1,1-.2,1.5-.3,.4,.6,.8,1.1,1.2,1.6,1,1.1,2.2,2,3.5,2.8,1.3,.8,2.7,1.4,4.1,1.8l2.2,.6c.8,.2,1.6,.4,2.3,.7l1.1,.4,1.1,.5,.5,.2c.2,.1,.4,.2,.5,.3l1,.6c1.4,.8,2.6,1.8,3.8,2.9,.1,.1,.2,.2,.3,.3,.5,.8,.7,1.3,.9,1.8Z"/></g><g id="_グループ_11"><g id="_グループ_10"><path id="_パス_26" d="M17.07,93.78v-.9c0-.6-.1-1.2-.1-1.2,0,0,0-.1,.1-.1h0s.1,0,.1,.1c.5,1.1,1,2.1,2.4,2.1,.8,0,1.3-.5,1.3-1.1s-.4-1-1.4-1.2l-.6-.2c-1.2-.3-1.7-.9-1.7-1.7,.1-1,1-1.8,2-1.7h.1c.6,.1,1.2,.2,1.8,.5,.2,0,.2-.1,.2-.3,0-.1,0-.2,.1-.2,0,0,.1,0,.1,.1h0v.8c0,.3,.1,1,.1,1,0,0,0,.1-.1,.1s-.1,0-.1-.1c-.4-1-1-1.8-2.1-1.8-.8,0-1.2,.4-1.2,1s.4,.9,1.3,1.1l.8,.2c1.2,.3,1.8,.8,1.8,1.8-.1,1.1-1,2-2.2,2h-.1c-.7-.1-1.4-.2-2-.4-.1,0-.3,.1-.3,.3q0,.1-.1,.1c-.1,0-.2-.2-.2-.3Z"/><path id="_パス_27" d="M30.87,87.88h1s.1,0,.1,.1,0,.1-.2,.1c-.3,.1-.3,.3-.3,1.9v1.5c0,2,0,2.2,.3,2.3,.1,0,.2,.1,.2,.1,0,0,0,.1-.1,.1s-.8-.1-1.3-.1c-.4,0-1,.1-1.1,.1s-.1,0-.1-.1,.1-.1,.2-.1c.4-.2,.4-.5,.4-2.2v-3.1l-.1,.1c-.1,.2-.4,.9-.9,2.3-.5,1.1-.9,2.3-1.2,3,0,.1-.1,.1-.1,.1l-.1-.1-2.3-5q0-.1-.1-.1c-.1,0,0,0,0,0v2.8c0,1.9,.1,1.9,.8,2,.1,0,.2,.1,.2,.1,0,0,0,.1-.1,.1s-.7-.1-1-.1-.8,.1-.9,.1-.1,0-.1-.1,0-.1,.2-.1c.6-.2,.8-.2,.8-2.1v-2.7c0-.5-.1-.7-.5-.8q-.1,0-.1-.1t.1-.1h1.7c.1,0,.2,0,.3,.2l1.6,3.6c.2,.4,.2,.5,.3,.5s.1-.1,.3-.6l1.4-3.4c.1-.2,.2-.3,.4-.3s0,.1,.3,.1Z"/><path id="_パス_28" d="M34.57,93.78q0-.1,.2-.1c.3-.1,.3-.4,.3-2.8s0-2.7-.3-2.8c-.1,0-.2-.1-.2-.1,0,0,0-.1,.1-.1h0c.1,0,.6,.1,1.1,.1s1-.1,1.1-.1c0,0,.1,0,.1,.1h0q0,.1-.2,.1c-.3,.1-.3,.4-.3,2.8s0,2.7,.3,2.8c.1,.1,.2,.1,.2,.1,0,0,0,.1-.1,.1s-.7-.1-1.1-.1h-1.2Z"/><path id="_パス_29" d="M41.87,87.78q.1,0,0,0c.1,.1,0,.1-.1,.2-.3,.1-.3,.4-.3,2.9,0,2,0,2.2,.1,2.4s.4,.2,.9,.2c.9,0,1.6-.4,1.9-2q0-.1,.1-.1t.1,.1c-.1,.7-.2,1.3-.2,1.7s.2,.3,.2,.4c0,0,0,.1-.1,.1h-4.8s-.1,0-.1-.1,0,0,.2-.1c.3-.1,.3-.3,.3-2.7,0-2.6,0-2.8-.3-2.9-.1-.1-.2-.1-.2-.1,0,0,0-.1,.1-.1s.5,.1,1,.1c.6,.1,1.1,0,1.2,0Z"/><path id="_パス_30" d="M46.57,93.68s0-.1,.1-.1c.4-.1,.5-.3,.8-1.1,.5-1.3,1.2-3.2,1.4-4,0-.1,.1-.1,.1-.2,0,0,0-.1-.2-.1-.1,0-.2-.1-.2-.1,0,0,0-.1,.1-.1,.6,0,1.2-.1,1.7-.3,0,0,.1,0,.1,.1h0c0,.1-.1,.1-.1,.2s0,.2,.1,.3c.4,1,1.2,3.2,1.7,4.5,.2,.5,.3,.7,.6,.8l.2,.1s0,.1-.1,.1-.8-.1-1.4-.1c-.5,0-1.2,.1-1.3,.1s-.1,0-.1-.1,0-.1,.2-.1c.3-.1,.4-.3,.4-.4-.1-.4-.2-.9-.3-1.3,0-.1-.1-.2-.2-.2h-2.2q-.1,0-.1,.1c-.1,.4-.2,.7-.3,.8,0,.1-.1,.3-.1,.4,0,.3,.2,.4,.5,.5q.1,0,.1,.1t-.1,.1c-.1,0-.6-.1-.9-.1,0,.2-.4,.2-.5,.1q0,.1,0,0Zm1.5-2.1h2q.1,0,.1-.1v-.1c-.4-1-.8-2.1-1-2.8-.1-.1-.1-.2-.1-.2l-.1,.1c-.3,.9-.7,1.9-1,2.8q.1,.2,.1,.3h0Z"/></g></g></g></g></g><g id="_グループ_13-2"><g id="BACKGROUND-2"><rect id="_長方形_5-2" class="cls-3" x="3.7" y="3.8" width="60.4" height="100.4"/><rect id="_長方形_6-2" class="cls-3" x=".5" y=".5" width="60.4" height="100.4"/></g><g id="OBJECTS-2"><g id="_グループ_12-2"><g id="_グループ_9-2"><path id="_パス_21-2" class="cls-4" d="M52.93,65.18c0,6.8-3.3,13.1-8.9,17-.5,.4-1.1,.7-1.6,1-2.7,1.5-5.6,2.4-8.7,2.7-.4,0-.9,.1-1.3,.1h-.3c-11.5,0-20.8-9.3-20.8-20.8s9.3-20.8,20.8-20.8c11.5,0,20.8,9.3,20.8,20.8Z"/><path id="_パス_22-2" class="cls-1" d="M44.13,82.18c-.5,.4-1.1,.7-1.6,1-2.7,1.5-5.6,2.4-8.7,2.7-.4,0-.9,.1-1.3,.1-1.7-3.8-4.2-7.3-5.2-7.7-1.1-.5-3.4,.6-5.3,.3s-1.2-3.3-1.4-3.9-.8-.5-1-1,.5-1,.5-1c-1.5-.5-1.1-.9-.9-2.1s-.1-.9-1.7-1.7,0-2.7,1.1-4.4c.6-.9,.9-2,.8-3.1-.9,0-1.7-.3-2.4-.8,.7,.4,1.5,.5,2.4,.5,0-.7-.1-1.6-.2-2.8-.2-3.5,2.3-7.6,2.3-7.6,7.5-7.2,17.8-3.7,20.7,0,2.9,3.7,1.4,14.2,1.1,15.9s-2.5,6.5-1.9,10c.6,2.1,1.5,4,2.7,5.6Z"/><path id="_パス_23-2" class="cls-4" d="M52.93,65.18c0,6.6-3.2,12.9-8.5,16.8-.1,.1-.2,.1-.2,.2-.6,.4-1.1,.8-1.7,1.1-2.7,1.5-5.6,2.4-8.7,2.7-1.5-3.7-1.2-7.8,.8-11.3,2.7-4.2,2.4-13.4-5.1-13.8-7.5-.4-10.7-4.2-10.7-4.2-1.1-4.8,1.6-8.2,4.1-10.1,.1-.1,.2-.1,.3-.1h0c.6-.3,1.2-.5,1.8-.8,1-.4,2-.6,3-.9,.5-.1,1-.2,1.5-.3,.9-.1,1.7-.2,2.6-.2,8.5,0,16.1,5.1,19.3,13,.2,.5,.4,1,.6,1.5,.6,2.2,.9,4.3,.9,6.4Z"/><path id="_パス_24-2" class="cls-1" d="M47.03,72.98c-.2,2.3-.8,4.6-1.6,6.7-.3,.8-.6,1.5-.9,2.2-.1,.1-.2,.1-.2,.2,.3-.8,.7-1.6,.9-2.5,.8-2.2,1.2-4.4,1.4-6.7,.1-2.3-.3-4.5-1.2-6.6-1-2-2.4-3.8-4.1-5.3-1.7-1.4-3.7-2.7-5.7-3.7-1-.5-2-1-3.1-1.5l-1.6-.7c-.5-.3-1.1-.5-1.6-.8-1.1-.6-2.1-1.3-3-2-1-.8-1.8-1.8-2.4-2.9-.5-1-.7-2-.8-3.1h0c.6-.3,1.2-.5,1.8-.8v.2c-.1,1,0,2,.4,2.9,1.1,1.9,2.7,3.4,4.6,4.4,.5,.3,1,.5,1.5,.8l1.5,.7c1.1,.5,2.1,1,3.1,1.6,2.1,1.1,4,2.5,5.8,4,1.8,1.6,3.2,3.5,4.2,5.7,.9,2.5,1.2,4.9,1,7.2Z"/><path id="_パス_25-2" class="cls-1" d="M52.03,58.88c-.4-.5-.9-.9-1.4-1.3-1.2-1-2.5-1.8-3.8-2.6l-1-.5c-.2-.1-.3-.2-.5-.2l-.5-.2-1.1-.4-1.1-.3c-.8-.4-1.5-.5-2.3-.7l-2.3-.6c-1.6-.5-3.1-1.1-4.5-1.9-2.3-1.3-4.2-3.2-5.5-5.5,.5-.1,1-.2,1.5-.3,.4,.6,.8,1.1,1.2,1.6,1,1.1,2.2,2,3.5,2.8,1.3,.8,2.7,1.4,4.1,1.8l2.2,.6c.8,.2,1.6,.4,2.3,.7l1.1,.4,1.1,.5,.5,.2c.2,.1,.4,.2,.5,.3l1,.6c1.4,.8,2.6,1.8,3.8,2.9,.1,.1,.2,.2,.3,.3,.5,.8,.7,1.3,.9,1.8Z"/></g><g id="_グループ_11-2"><g id="_グループ_10-2"><path id="_パス_26-2" d="M17.07,93.78v-.9c0-.6-.1-1.2-.1-1.2,0,0,0-.1,.1-.1h0s.1,0,.1,.1c.5,1.1,1,2.1,2.4,2.1,.8,0,1.3-.5,1.3-1.1s-.4-1-1.4-1.2l-.6-.2c-1.2-.3-1.7-.9-1.7-1.7,.1-1,1-1.8,2-1.7h.1c.6,.1,1.2,.2,1.8,.5,.2,0,.2-.1,.2-.3,0-.1,0-.2,.1-.2,0,0,.1,0,.1,.1h0v.8c0,.3,.1,1,.1,1,0,0,0,.1-.1,.1s-.1,0-.1-.1c-.4-1-1-1.8-2.1-1.8-.8,0-1.2,.4-1.2,1s.4,.9,1.3,1.1l.8,.2c1.2,.3,1.8,.8,1.8,1.8-.1,1.1-1,2-2.2,2h-.1c-.7-.1-1.4-.2-2-.4-.1,0-.3,.1-.3,.3q0,.1-.1,.1c-.1,0-.2-.2-.2-.3Z"/><path id="_パス_27-2" d="M30.87,87.88h1s.1,0,.1,.1,0,.1-.2,.1c-.3,.1-.3,.3-.3,1.9v1.5c0,2,0,2.2,.3,2.3,.1,0,.2,.1,.2,.1,0,0,0,.1-.1,.1s-.8-.1-1.3-.1c-.4,0-1,.1-1.1,.1s-.1,0-.1-.1,.1-.1,.2-.1c.4-.2,.4-.5,.4-2.2v-3.1l-.1,.1c-.1,.2-.4,.9-.9,2.3-.5,1.1-.9,2.3-1.2,3,0,.1-.1,.1-.1,.1l-.1-.1-2.3-5q0-.1-.1-.1c-.1,0,0,0,0,0v2.8c0,1.9,.1,1.9,.8,2,.1,0,.2,.1,.2,.1,0,0,0,.1-.1,.1s-.7-.1-1-.1-.8,.1-.9,.1-.1,0-.1-.1,0-.1,.2-.1c.6-.2,.8-.2,.8-2.1v-2.7c0-.5-.1-.7-.5-.8q-.1,0-.1-.1t.1-.1h1.7c.1,0,.2,0,.3,.2l1.6,3.6c.2,.4,.2,.5,.3,.5s.1-.1,.3-.6l1.4-3.4c.1-.2,.2-.3,.4-.3s0,.1,.3,.1Z"/><path id="_パス_28-2" d="M34.57,93.78q0-.1,.2-.1c.3-.1,.3-.4,.3-2.8s0-2.7-.3-2.8c-.1,0-.2-.1-.2-.1,0,0,0-.1,.1-.1h0c.1,0,.6,.1,1.1,.1s1-.1,1.1-.1c0,0,.1,0,.1,.1h0q0,.1-.2,.1c-.3,.1-.3,.4-.3,2.8s0,2.7,.3,2.8c.1,.1,.2,.1,.2,.1,0,0,0,.1-.1,.1s-.7-.1-1.1-.1h-1.2Z"/><path id="_パス_29-2" d="M41.87,87.78q.1,0,0,0c.1,.1,0,.1-.1,.2-.3,.1-.3,.4-.3,2.9,0,2,0,2.2,.1,2.4s.4,.2,.9,.2c.9,0,1.6-.4,1.9-2q0-.1,.1-.1t.1,.1c-.1,.7-.2,1.3-.2,1.7s.2,.3,.2,.4c0,0,0,.1-.1,.1h-4.8s-.1,0-.1-.1,0,0,.2-.1c.3-.1,.3-.3,.3-2.7,0-2.6,0-2.8-.3-2.9-.1-.1-.2-.1-.2-.1,0,0,0-.1,.1-.1s.5,.1,1,.1c.6,.1,1.1,0,1.2,0Z"/><path id="_パス_30-2" d="M46.57,93.68s0-.1,.1-.1c.4-.1,.5-.3,.8-1.1,.5-1.3,1.2-3.2,1.4-4,0-.1,.1-.1,.1-.2,0,0,0-.1-.2-.1-.1,0-.2-.1-.2-.1,0,0,0-.1,.1-.1,.6,0,1.2-.1,1.7-.3,0,0,.1,0,.1,.1h0c0,.1-.1,.1-.1,.2s0,.2,.1,.3c.4,1,1.2,3.2,1.7,4.5,.2,.5,.3,.7,.6,.8l.2,.1s0,.1-.1,.1-.8-.1-1.4-.1c-.5,0-1.2,.1-1.3,.1s-.1,0-.1-.1,0-.1,.2-.1c.3-.1,.4-.3,.4-.4-.1-.4-.2-.9-.3-1.3,0-.1-.1-.2-.2-.2h-2.2q-.1,0-.1,.1c-.1,.4-.2,.7-.3,.8,0,.1-.1,.3-.1,.4,0,.3,.2,.4,.5,.5q.1,0,.1,.1t-.1,.1c-.1,0-.6-.1-.9-.1,0,.2-.4,.2-.5,.1q0,.1,0,0Zm1.5-2.1h2q.1,0,.1-.1v-.1c-.4-1-.8-2.1-1-2.8-.1-.1-.1-.2-.1-.2l-.1,.1c-.3,.9-.7,1.9-1,2.8q.1,.2,.1,.3h0Z"/></g></g></g></g></g><g id="_グループ_13-3"><g id="BACKGROUND-3"><rect id="_長方形_5-3" class="cls-3" x="3.7" y="3.8" width="60.4" height="100.4"/><rect id="_長方形_6-3" class="cls-3" x=".5" y=".5" width="60.4" height="100.4"/></g><g id="OBJECTS-3"><g id="_グループ_12-3"><g id="_グループ_9-3"><path id="_パス_21-3" class="cls-4" d="M52.93,65.18c0,6.8-3.3,13.1-8.9,17-.5,.4-1.1,.7-1.6,1-2.7,1.5-5.6,2.4-8.7,2.7-.4,0-.9,.1-1.3,.1h-.3c-11.5,0-20.8-9.3-20.8-20.8s9.3-20.8,20.8-20.8c11.5,0,20.8,9.3,20.8,20.8Z"/><path id="_パス_22-3" class="cls-1" d="M44.13,82.18c-.5,.4-1.1,.7-1.6,1-2.7,1.5-5.6,2.4-8.7,2.7-.4,0-.9,.1-1.3,.1-1.7-3.8-4.2-7.3-5.2-7.7-1.1-.5-3.4,.6-5.3,.3s-1.2-3.3-1.4-3.9-.8-.5-1-1,.5-1,.5-1c-1.5-.5-1.1-.9-.9-2.1s-.1-.9-1.7-1.7,0-2.7,1.1-4.4c.6-.9,.9-2,.8-3.1-.9,0-1.7-.3-2.4-.8,.7,.4,1.5,.5,2.4,.5,0-.7-.1-1.6-.2-2.8-.2-3.5,2.3-7.6,2.3-7.6,7.5-7.2,17.8-3.7,20.7,0,2.9,3.7,1.4,14.2,1.1,15.9s-2.5,6.5-1.9,10c.6,2.1,1.5,4,2.7,5.6Z"/><path id="_パス_23-3" class="cls-4" d="M52.93,65.18c0,6.6-3.2,12.9-8.5,16.8-.1,.1-.2,.1-.2,.2-.6,.4-1.1,.8-1.7,1.1-2.7,1.5-5.6,2.4-8.7,2.7-1.5-3.7-1.2-7.8,.8-11.3,2.7-4.2,2.4-13.4-5.1-13.8-7.5-.4-10.7-4.2-10.7-4.2-1.1-4.8,1.6-8.2,4.1-10.1,.1-.1,.2-.1,.3-.1h0c.6-.3,1.2-.5,1.8-.8,1-.4,2-.6,3-.9,.5-.1,1-.2,1.5-.3,.9-.1,1.7-.2,2.6-.2,8.5,0,16.1,5.1,19.3,13,.2,.5,.4,1,.6,1.5,.6,2.2,.9,4.3,.9,6.4Z"/><path id="_パス_24-3" class="cls-1" d="M47.03,72.98c-.2,2.3-.8,4.6-1.6,6.7-.3,.8-.6,1.5-.9,2.2-.1,.1-.2,.1-.2,.2,.3-.8,.7-1.6,.9-2.5,.8-2.2,1.2-4.4,1.4-6.7,.1-2.3-.3-4.5-1.2-6.6-1-2-2.4-3.8-4.1-5.3-1.7-1.4-3.7-2.7-5.7-3.7-1-.5-2-1-3.1-1.5l-1.6-.7c-.5-.3-1.1-.5-1.6-.8-1.1-.6-2.1-1.3-3-2-1-.8-1.8-1.8-2.4-2.9-.5-1-.7-2-.8-3.1h0c.6-.3,1.2-.5,1.8-.8v.2c-.1,1,0,2,.4,2.9,1.1,1.9,2.7,3.4,4.6,4.4,.5,.3,1,.5,1.5,.8l1.5,.7c1.1,.5,2.1,1,3.1,1.6,2.1,1.1,4,2.5,5.8,4,1.8,1.6,3.2,3.5,4.2,5.7,.9,2.5,1.2,4.9,1,7.2Z"/><path id="_パス_25-3" class="cls-1" d="M52.03,58.88c-.4-.5-.9-.9-1.4-1.3-1.2-1-2.5-1.8-3.8-2.6l-1-.5c-.2-.1-.3-.2-.5-.2l-.5-.2-1.1-.4-1.1-.3c-.8-.4-1.5-.5-2.3-.7l-2.3-.6c-1.6-.5-3.1-1.1-4.5-1.9-2.3-1.3-4.2-3.2-5.5-5.5,.5-.1,1-.2,1.5-.3,.4,.6,.8,1.1,1.2,1.6,1,1.1,2.2,2,3.5,2.8,1.3,.8,2.7,1.4,4.1,1.8l2.2,.6c.8,.2,1.6,.4,2.3,.7l1.1,.4,1.1,.5,.5,.2c.2,.1,.4,.2,.5,.3l1,.6c1.4,.8,2.6,1.8,3.8,2.9,.1,.1,.2,.2,.3,.3,.5,.8,.7,1.3,.9,1.8Z"/></g><g id="_グループ_11-3"><g id="_グループ_10-3"><path id="_パス_26-3" d="M17.07,93.78v-.9c0-.6-.1-1.2-.1-1.2,0,0,0-.1,.1-.1h0s.1,0,.1,.1c.5,1.1,1,2.1,2.4,2.1,.8,0,1.3-.5,1.3-1.1s-.4-1-1.4-1.2l-.6-.2c-1.2-.3-1.7-.9-1.7-1.7,.1-1,1-1.8,2-1.7h.1c.6,.1,1.2,.2,1.8,.5,.2,0,.2-.1,.2-.3,0-.1,0-.2,.1-.2,0,0,.1,0,.1,.1h0v.8c0,.3,.1,1,.1,1,0,0,0,.1-.1,.1s-.1,0-.1-.1c-.4-1-1-1.8-2.1-1.8-.8,0-1.2,.4-1.2,1s.4,.9,1.3,1.1l.8,.2c1.2,.3,1.8,.8,1.8,1.8-.1,1.1-1,2-2.2,2h-.1c-.7-.1-1.4-.2-2-.4-.1,0-.3,.1-.3,.3q0,.1-.1,.1c-.1,0-.2-.2-.2-.3Z"/><path id="_パス_27-3" d="M30.87,87.88h1s.1,0,.1,.1,0,.1-.2,.1c-.3,.1-.3,.3-.3,1.9v1.5c0,2,0,2.2,.3,2.3,.1,0,.2,.1,.2,.1,0,0,0,.1-.1,.1s-.8-.1-1.3-.1c-.4,0-1,.1-1.1,.1s-.1,0-.1-.1,.1-.1,.2-.1c.4-.2,.4-.5,.4-2.2v-3.1l-.1,.1c-.1,.2-.4,.9-.9,2.3-.5,1.1-.9,2.3-1.2,3,0,.1-.1,.1-.1,.1l-.1-.1-2.3-5q0-.1-.1-.1c-.1,0,0,0,0,0v2.8c0,1.9,.1,1.9,.8,2,.1,0,.2,.1,.2,.1,0,0,0,.1-.1,.1s-.7-.1-1-.1-.8,.1-.9,.1-.1,0-.1-.1,0-.1,.2-.1c.6-.2,.8-.2,.8-2.1v-2.7c0-.5-.1-.7-.5-.8q-.1,0-.1-.1t.1-.1h1.7c.1,0,.2,0,.3,.2l1.6,3.6c.2,.4,.2,.5,.3,.5s.1-.1,.3-.6l1.4-3.4c.1-.2,.2-.3,.4-.3s0,.1,.3,.1Z"/><path id="_パス_28-3" d="M34.57,93.78q0-.1,.2-.1c.3-.1,.3-.4,.3-2.8s0-2.7-.3-2.8c-.1,0-.2-.1-.2-.1,0,0,0-.1,.1-.1h0c.1,0,.6,.1,1.1,.1s1-.1,1.1-.1c0,0,.1,0,.1,.1h0q0,.1-.2,.1c-.3,.1-.3,.4-.3,2.8s0,2.7,.3,2.8c.1,.1,.2,.1,.2,.1,0,0,0,.1-.1,.1s-.7-.1-1.1-.1h-1.2Z"/><path id="_パス_29-3" d="M41.87,87.78q.1,0,0,0c.1,.1,0,.1-.1,.2-.3,.1-.3,.4-.3,2.9,0,2,0,2.2,.1,2.4s.4,.2,.9,.2c.9,0,1.6-.4,1.9-2q0-.1,.1-.1t.1,.1c-.1,.7-.2,1.3-.2,1.7s.2,.3,.2,.4c0,0,0,.1-.1,.1h-4.8s-.1,0-.1-.1,0,0,.2-.1c.3-.1,.3-.3,.3-2.7,0-2.6,0-2.8-.3-2.9-.1-.1-.2-.1-.2-.1,0,0,0-.1,.1-.1s.5,.1,1,.1c.6,.1,1.1,0,1.2,0Z"/><path id="_パス_30-3" d="M46.57,93.68s0-.1,.1-.1c.4-.1,.5-.3,.8-1.1,.5-1.3,1.2-3.2,1.4-4,0-.1,.1-.1,.1-.2,0,0,0-.1-.2-.1-.1,0-.2-.1-.2-.1,0,0,0-.1,.1-.1,.6,0,1.2-.1,1.7-.3,0,0,.1,0,.1,.1h0c0,.1-.1,.1-.1,.2s0,.2,.1,.3c.4,1,1.2,3.2,1.7,4.5,.2,.5,.3,.7,.6,.8l.2,.1s0,.1-.1,.1-.8-.1-1.4-.1c-.5,0-1.2,.1-1.3,.1s-.1,0-.1-.1,0-.1,.2-.1c.3-.1,.4-.3,.4-.4-.1-.4-.2-.9-.3-1.3,0-.1-.1-.2-.2-.2h-2.2q-.1,0-.1,.1c-.1,.4-.2,.7-.3,.8,0,.1-.1,.3-.1,.4,0,.3,.2,.4,.5,.5q.1,0,.1,.1t-.1,.1c-.1,0-.6-.1-.9-.1,0,.2-.4,.2-.5,.1q0,.1,0,0Zm1.5-2.1h2q.1,0,.1-.1v-.1c-.4-1-.8-2.1-1-2.8-.1-.1-.1-.2-.1-.2l-.1,.1c-.3,.9-.7,1.9-1,2.8q.1,.2,.1,.3h0Z"/></g></g></g></g></g><g id="_グループ_13-4"><g id="BACKGROUND-4"><rect id="_長方形_5-4" class="cls-3" x="3.7" y="3.8" width="60.4" height="100.4"/><rect id="_長方形_6-4" class="cls-3" x=".5" y=".5" width="60.4" height="100.4"/></g><g id="OBJECTS-4"><g id="_グループ_12-4"><g id="_グループ_9-4"><path id="_パス_21-4" class="cls-4" d="M52.93,65.18c0,6.8-3.3,13.1-8.9,17-.5,.4-1.1,.7-1.6,1-2.7,1.5-5.6,2.4-8.7,2.7-.4,0-.9,.1-1.3,.1h-.3c-11.5,0-20.8-9.3-20.8-20.8s9.3-20.8,20.8-20.8c11.5,0,20.8,9.3,20.8,20.8Z"/><path id="_パス_22-4" class="cls-1" d="M44.13,82.18c-.5,.4-1.1,.7-1.6,1-2.7,1.5-5.6,2.4-8.7,2.7-.4,0-.9,.1-1.3,.1-1.7-3.8-4.2-7.3-5.2-7.7-1.1-.5-3.4,.6-5.3,.3s-1.2-3.3-1.4-3.9-.8-.5-1-1,.5-1,.5-1c-1.5-.5-1.1-.9-.9-2.1s-.1-.9-1.7-1.7,0-2.7,1.1-4.4c.6-.9,.9-2,.8-3.1-.9,0-1.7-.3-2.4-.8,.7,.4,1.5,.5,2.4,.5,0-.7-.1-1.6-.2-2.8-.2-3.5,2.3-7.6,2.3-7.6,7.5-7.2,17.8-3.7,20.7,0,2.9,3.7,1.4,14.2,1.1,15.9s-2.5,6.5-1.9,10c.6,2.1,1.5,4,2.7,5.6Z"/><path id="_パス_23-4" class="cls-4" d="M52.93,65.18c0,6.6-3.2,12.9-8.5,16.8-.1,.1-.2,.1-.2,.2-.6,.4-1.1,.8-1.7,1.1-2.7,1.5-5.6,2.4-8.7,2.7-1.5-3.7-1.2-7.8,.8-11.3,2.7-4.2,2.4-13.4-5.1-13.8-7.5-.4-10.7-4.2-10.7-4.2-1.1-4.8,1.6-8.2,4.1-10.1,.1-.1,.2-.1,.3-.1h0c.6-.3,1.2-.5,1.8-.8,1-.4,2-.6,3-.9,.5-.1,1-.2,1.5-.3,.9-.1,1.7-.2,2.6-.2,8.5,0,16.1,5.1,19.3,13,.2,.5,.4,1,.6,1.5,.6,2.2,.9,4.3,.9,6.4Z"/><path id="_パス_24-4" class="cls-1" d="M47.03,72.98c-.2,2.3-.8,4.6-1.6,6.7-.3,.8-.6,1.5-.9,2.2-.1,.1-.2,.1-.2,.2,.3-.8,.7-1.6,.9-2.5,.8-2.2,1.2-4.4,1.4-6.7,.1-2.3-.3-4.5-1.2-6.6-1-2-2.4-3.8-4.1-5.3-1.7-1.4-3.7-2.7-5.7-3.7-1-.5-2-1-3.1-1.5l-1.6-.7c-.5-.3-1.1-.5-1.6-.8-1.1-.6-2.1-1.3-3-2-1-.8-1.8-1.8-2.4-2.9-.5-1-.7-2-.8-3.1h0c.6-.3,1.2-.5,1.8-.8v.2c-.1,1,0,2,.4,2.9,1.1,1.9,2.7,3.4,4.6,4.4,.5,.3,1,.5,1.5,.8l1.5,.7c1.1,.5,2.1,1,3.1,1.6,2.1,1.1,4,2.5,5.8,4,1.8,1.6,3.2,3.5,4.2,5.7,.9,2.5,1.2,4.9,1,7.2Z"/><path id="_パス_25-4" class="cls-1" d="M52.03,58.88c-.4-.5-.9-.9-1.4-1.3-1.2-1-2.5-1.8-3.8-2.6l-1-.5c-.2-.1-.3-.2-.5-.2l-.5-.2-1.1-.4-1.1-.3c-.8-.4-1.5-.5-2.3-.7l-2.3-.6c-1.6-.5-3.1-1.1-4.5-1.9-2.3-1.3-4.2-3.2-5.5-5.5,.5-.1,1-.2,1.5-.3,.4,.6,.8,1.1,1.2,1.6,1,1.1,2.2,2,3.5,2.8,1.3,.8,2.7,1.4,4.1,1.8l2.2,.6c.8,.2,1.6,.4,2.3,.7l1.1,.4,1.1,.5,.5,.2c.2,.1,.4,.2,.5,.3l1,.6c1.4,.8,2.6,1.8,3.8,2.9,.1,.1,.2,.2,.3,.3,.5,.8,.7,1.3,.9,1.8Z"/></g><g id="_グループ_11-4"><g id="_グループ_10-4"><path id="_パス_26-4" d="M17.07,93.78v-.9c0-.6-.1-1.2-.1-1.2,0,0,0-.1,.1-.1h0s.1,0,.1,.1c.5,1.1,1,2.1,2.4,2.1,.8,0,1.3-.5,1.3-1.1s-.4-1-1.4-1.2l-.6-.2c-1.2-.3-1.7-.9-1.7-1.7,.1-1,1-1.8,2-1.7h.1c.6,.1,1.2,.2,1.8,.5,.2,0,.2-.1,.2-.3,0-.1,0-.2,.1-.2,0,0,.1,0,.1,.1h0v.8c0,.3,.1,1,.1,1,0,0,0,.1-.1,.1s-.1,0-.1-.1c-.4-1-1-1.8-2.1-1.8-.8,0-1.2,.4-1.2,1s.4,.9,1.3,1.1l.8,.2c1.2,.3,1.8,.8,1.8,1.8-.1,1.1-1,2-2.2,2h-.1c-.7-.1-1.4-.2-2-.4-.1,0-.3,.1-.3,.3q0,.1-.1,.1c-.1,0-.2-.2-.2-.3Z"/><path id="_パス_27-4" d="M30.87,87.88h1s.1,0,.1,.1,0,.1-.2,.1c-.3,.1-.3,.3-.3,1.9v1.5c0,2,0,2.2,.3,2.3,.1,0,.2,.1,.2,.1,0,0,0,.1-.1,.1s-.8-.1-1.3-.1c-.4,0-1,.1-1.1,.1s-.1,0-.1-.1,.1-.1,.2-.1c.4-.2,.4-.5,.4-2.2v-3.1l-.1,.1c-.1,.2-.4,.9-.9,2.3-.5,1.1-.9,2.3-1.2,3,0,.1-.1,.1-.1,.1l-.1-.1-2.3-5q0-.1-.1-.1c-.1,0,0,0,0,0v2.8c0,1.9,.1,1.9,.8,2,.1,0,.2,.1,.2,.1,0,0,0,.1-.1,.1s-.7-.1-1-.1-.8,.1-.9,.1-.1,0-.1-.1,0-.1,.2-.1c.6-.2,.8-.2,.8-2.1v-2.7c0-.5-.1-.7-.5-.8q-.1,0-.1-.1t.1-.1h1.7c.1,0,.2,0,.3,.2l1.6,3.6c.2,.4,.2,.5,.3,.5s.1-.1,.3-.6l1.4-3.4c.1-.2,.2-.3,.4-.3s0,.1,.3,.1Z"/><path id="_パス_28-4" d="M34.57,93.78q0-.1,.2-.1c.3-.1,.3-.4,.3-2.8s0-2.7-.3-2.8c-.1,0-.2-.1-.2-.1,0,0,0-.1,.1-.1h0c.1,0,.6,.1,1.1,.1s1-.1,1.1-.1c0,0,.1,0,.1,.1h0q0,.1-.2,.1c-.3,.1-.3,.4-.3,2.8s0,2.7,.3,2.8c.1,.1,.2,.1,.2,.1,0,0,0,.1-.1,.1s-.7-.1-1.1-.1h-1.2Z"/><path id="_パス_29-4" d="M41.87,87.78q.1,0,0,0c.1,.1,0,.1-.1,.2-.3,.1-.3,.4-.3,2.9,0,2,0,2.2,.1,2.4s.4,.2,.9,.2c.9,0,1.6-.4,1.9-2q0-.1,.1-.1t.1,.1c-.1,.7-.2,1.3-.2,1.7s.2,.3,.2,.4c0,0,0,.1-.1,.1h-4.8s-.1,0-.1-.1,0,0,.2-.1c.3-.1,.3-.3,.3-2.7,0-2.6,0-2.8-.3-2.9-.1-.1-.2-.1-.2-.1,0,0,0-.1,.1-.1s.5,.1,1,.1c.6,.1,1.1,0,1.2,0Z"/><path id="_パス_30-4" d="M46.57,93.68s0-.1,.1-.1c.4-.1,.5-.3,.8-1.1,.5-1.3,1.2-3.2,1.4-4,0-.1,.1-.1,.1-.2,0,0,0-.1-.2-.1-.1,0-.2-.1-.2-.1,0,0,0-.1,.1-.1,.6,0,1.2-.1,1.7-.3,0,0,.1,0,.1,.1h0c0,.1-.1,.1-.1,.2s0,.2,.1,.3c.4,1,1.2,3.2,1.7,4.5,.2,.5,.3,.7,.6,.8l.2,.1s0,.1-.1,.1-.8-.1-1.4-.1c-.5,0-1.2,.1-1.3,.1s-.1,0-.1-.1,0-.1,.2-.1c.3-.1,.4-.3,.4-.4-.1-.4-.2-.9-.3-1.3,0-.1-.1-.2-.2-.2h-2.2q-.1,0-.1,.1c-.1,.4-.2,.7-.3,.8,0,.1-.1,.3-.1,.4,0,.3,.2,.4,.5,.5q.1,0,.1,.1t-.1,.1c-.1,0-.6-.1-.9-.1,0,.2-.4,.2-.5,.1q0,.1,0,0Zm1.5-2.1h2q.1,0,.1-.1v-.1c-.4-1-.8-2.1-1-2.8-.1-.1-.1-.2-.1-.2l-.1,.1c-.3,.9-.7,1.9-1,2.8q.1,.2,.1,.3h0Z"/></g></g></g></g></g><g id="_グループ_13-5"><g id="BACKGROUND-5"><rect id="_長方形_5-5" class="cls-3" x="3.7" y="3.8" width="60.4" height="100.4"/><rect id="_長方形_6-5" class="cls-3" x=".5" y=".5" width="60.4" height="100.4"/></g><g id="OBJECTS-5"><g id="_グループ_12-5"><g id="_グループ_9-5"><path id="_パス_21-5" class="cls-4" d="M52.93,65.18c0,6.8-3.3,13.1-8.9,17-.5,.4-1.1,.7-1.6,1-2.7,1.5-5.6,2.4-8.7,2.7-.4,0-.9,.1-1.3,.1h-.3c-11.5,0-20.8-9.3-20.8-20.8s9.3-20.8,20.8-20.8c11.5,0,20.8,9.3,20.8,20.8Z"/><path id="_パス_22-5" class="cls-1" d="M44.13,82.18c-.5,.4-1.1,.7-1.6,1-2.7,1.5-5.6,2.4-8.7,2.7-.4,0-.9,.1-1.3,.1-1.7-3.8-4.2-7.3-5.2-7.7-1.1-.5-3.4,.6-5.3,.3s-1.2-3.3-1.4-3.9-.8-.5-1-1,.5-1,.5-1c-1.5-.5-1.1-.9-.9-2.1s-.1-.9-1.7-1.7,0-2.7,1.1-4.4c.6-.9,.9-2,.8-3.1-.9,0-1.7-.3-2.4-.8,.7,.4,1.5,.5,2.4,.5,0-.7-.1-1.6-.2-2.8-.2-3.5,2.3-7.6,2.3-7.6,7.5-7.2,17.8-3.7,20.7,0,2.9,3.7,1.4,14.2,1.1,15.9s-2.5,6.5-1.9,10c.6,2.1,1.5,4,2.7,5.6Z"/><path id="_パス_23-5" class="cls-4" d="M52.93,65.18c0,6.6-3.2,12.9-8.5,16.8-.1,.1-.2,.1-.2,.2-.6,.4-1.1,.8-1.7,1.1-2.7,1.5-5.6,2.4-8.7,2.7-1.5-3.7-1.2-7.8,.8-11.3,2.7-4.2,2.4-13.4-5.1-13.8-7.5-.4-10.7-4.2-10.7-4.2-1.1-4.8,1.6-8.2,4.1-10.1,.1-.1,.2-.1,.3-.1h0c.6-.3,1.2-.5,1.8-.8,1-.4,2-.6,3-.9,.5-.1,1-.2,1.5-.3,.9-.1,1.7-.2,2.6-.2,8.5,0,16.1,5.1,19.3,13,.2,.5,.4,1,.6,1.5,.6,2.2,.9,4.3,.9,6.4Z"/><path id="_パス_24-5" class="cls-1" d="M47.03,72.98c-.2,2.3-.8,4.6-1.6,6.7-.3,.8-.6,1.5-.9,2.2-.1,.1-.2,.1-.2,.2,.3-.8,.7-1.6,.9-2.5,.8-2.2,1.2-4.4,1.4-6.7,.1-2.3-.3-4.5-1.2-6.6-1-2-2.4-3.8-4.1-5.3-1.7-1.4-3.7-2.7-5.7-3.7-1-.5-2-1-3.1-1.5l-1.6-.7c-.5-.3-1.1-.5-1.6-.8-1.1-.6-2.1-1.3-3-2-1-.8-1.8-1.8-2.4-2.9-.5-1-.7-2-.8-3.1h0c.6-.3,1.2-.5,1.8-.8v.2c-.1,1,0,2,.4,2.9,1.1,1.9,2.7,3.4,4.6,4.4,.5,.3,1,.5,1.5,.8l1.5,.7c1.1,.5,2.1,1,3.1,1.6,2.1,1.1,4,2.5,5.8,4,1.8,1.6,3.2,3.5,4.2,5.7,.9,2.5,1.2,4.9,1,7.2Z"/><path id="_パス_25-5" class="cls-1" d="M52.03,58.88c-.4-.5-.9-.9-1.4-1.3-1.2-1-2.5-1.8-3.8-2.6l-1-.5c-.2-.1-.3-.2-.5-.2l-.5-.2-1.1-.4-1.1-.3c-.8-.4-1.5-.5-2.3-.7l-2.3-.6c-1.6-.5-3.1-1.1-4.5-1.9-2.3-1.3-4.2-3.2-5.5-5.5,.5-.1,1-.2,1.5-.3,.4,.6,.8,1.1,1.2,1.6,1,1.1,2.2,2,3.5,2.8,1.3,.8,2.7,1.4,4.1,1.8l2.2,.6c.8,.2,1.6,.4,2.3,.7l1.1,.4,1.1,.5,.5,.2c.2,.1,.4,.2,.5,.3l1,.6c1.4,.8,2.6,1.8,3.8,2.9,.1,.1,.2,.2,.3,.3,.5,.8,.7,1.3,.9,1.8Z"/></g><g id="_グループ_11-5"><g id="_グループ_10-5"><path id="_パス_26-5" d="M17.07,93.78v-.9c0-.6-.1-1.2-.1-1.2,0,0,0-.1,.1-.1h0s.1,0,.1,.1c.5,1.1,1,2.1,2.4,2.1,.8,0,1.3-.5,1.3-1.1s-.4-1-1.4-1.2l-.6-.2c-1.2-.3-1.7-.9-1.7-1.7,.1-1,1-1.8,2-1.7h.1c.6,.1,1.2,.2,1.8,.5,.2,0,.2-.1,.2-.3,0-.1,0-.2,.1-.2,0,0,.1,0,.1,.1h0v.8c0,.3,.1,1,.1,1,0,0,0,.1-.1,.1s-.1,0-.1-.1c-.4-1-1-1.8-2.1-1.8-.8,0-1.2,.4-1.2,1s.4,.9,1.3,1.1l.8,.2c1.2,.3,1.8,.8,1.8,1.8-.1,1.1-1,2-2.2,2h-.1c-.7-.1-1.4-.2-2-.4-.1,0-.3,.1-.3,.3q0,.1-.1,.1c-.1,0-.2-.2-.2-.3Z"/><path id="_パス_27-5" d="M30.87,87.88h1s.1,0,.1,.1,0,.1-.2,.1c-.3,.1-.3,.3-.3,1.9v1.5c0,2,0,2.2,.3,2.3,.1,0,.2,.1,.2,.1,0,0,0,.1-.1,.1s-.8-.1-1.3-.1c-.4,0-1,.1-1.1,.1s-.1,0-.1-.1,.1-.1,.2-.1c.4-.2,.4-.5,.4-2.2v-3.1l-.1,.1c-.1,.2-.4,.9-.9,2.3-.5,1.1-.9,2.3-1.2,3,0,.1-.1,.1-.1,.1l-.1-.1-2.3-5q0-.1-.1-.1c-.1,0,0,0,0,0v2.8c0,1.9,.1,1.9,.8,2,.1,0,.2,.1,.2,.1,0,0,0,.1-.1,.1s-.7-.1-1-.1-.8,.1-.9,.1-.1,0-.1-.1,0-.1,.2-.1c.6-.2,.8-.2,.8-2.1v-2.7c0-.5-.1-.7-.5-.8q-.1,0-.1-.1t.1-.1h1.7c.1,0,.2,0,.3,.2l1.6,3.6c.2,.4,.2,.5,.3,.5s.1-.1,.3-.6l1.4-3.4c.1-.2,.2-.3,.4-.3s0,.1,.3,.1Z"/><path id="_パス_28-5" d="M34.57,93.78q0-.1,.2-.1c.3-.1,.3-.4,.3-2.8s0-2.7-.3-2.8c-.1,0-.2-.1-.2-.1,0,0,0-.1,.1-.1h0c.1,0,.6,.1,1.1,.1s1-.1,1.1-.1c0,0,.1,0,.1,.1h0q0,.1-.2,.1c-.3,.1-.3,.4-.3,2.8s0,2.7,.3,2.8c.1,.1,.2,.1,.2,.1,0,0,0,.1-.1,.1s-.7-.1-1.1-.1h-1.2Z"/><path id="_パス_29-5" d="M41.87,87.78q.1,0,0,0c.1,.1,0,.1-.1,.2-.3,.1-.3,.4-.3,2.9,0,2,0,2.2,.1,2.4s.4,.2,.9,.2c.9,0,1.6-.4,1.9-2q0-.1,.1-.1t.1,.1c-.1,.7-.2,1.3-.2,1.7s.2,.3,.2,.4c0,0,0,.1-.1,.1h-4.8s-.1,0-.1-.1,0,0,.2-.1c.3-.1,.3-.3,.3-2.7,0-2.6,0-2.8-.3-2.9-.1-.1-.2-.1-.2-.1,0,0,0-.1,.1-.1s.5,.1,1,.1c.6,.1,1.1,0,1.2,0Z"/><path id="_パス_30-5" d="M46.57,93.68s0-.1,.1-.1c.4-.1,.5-.3,.8-1.1,.5-1.3,1.2-3.2,1.4-4,0-.1,.1-.1,.1-.2,0,0,0-.1-.2-.1-.1,0-.2-.1-.2-.1,0,0,0-.1,.1-.1,.6,0,1.2-.1,1.7-.3,0,0,.1,0,.1,.1h0c0,.1-.1,.1-.1,.2s0,.2,.1,.3c.4,1,1.2,3.2,1.7,4.5,.2,.5,.3,.7,.6,.8l.2,.1s0,.1-.1,.1-.8-.1-1.4-.1c-.5,0-1.2,.1-1.3,.1s-.1,0-.1-.1,0-.1,.2-.1c.3-.1,.4-.3,.4-.4-.1-.4-.2-.9-.3-1.3,0-.1-.1-.2-.2-.2h-2.2q-.1,0-.1,.1c-.1,.4-.2,.7-.3,.8,0,.1-.1,.3-.1,.4,0,.3,.2,.4,.5,.5q.1,0,.1,.1t-.1,.1c-.1,0-.6-.1-.9-.1,0,.2-.4,.2-.5,.1q0,.1,0,0Zm1.5-2.1h2q.1,0,.1-.1v-.1c-.4-1-.8-2.1-1-2.8-.1-.1-.1-.2-.1-.2l-.1,.1c-.3,.9-.7,1.9-1,2.8q.1,.2,.1,.3h0Z"/></g></g></g></g></g><g id="_グループ_13-6"><g><polygon class="cls-3" points="60.8 3.76 60.8 100.96 3.7 100.96 3.7 104.16 64.1 104.16 64.1 3.76 60.8 3.76"/><polygon class="cls-3" points="60.8 3.76 60.8 .56 .5 .56 .5 100.96 3.7 100.96 3.7 3.76 60.8 3.76"/><rect class="cls-2" x="3.7" y="3.76" width="57.1" height="97.2"/></g><g id="OBJECTS-6"><g id="_グループ_12-6"><g id="_グループ_9-6"><path id="_パス_21-6" class="cls-4" d="M52.93,65.18c0,6.8-3.3,13.1-8.9,17-.5,.4-1.1,.7-1.6,1-2.7,1.5-5.6,2.4-8.7,2.7-.4,0-.9,.1-1.3,.1h-.3c-11.5,0-20.8-9.3-20.8-20.8s9.3-20.8,20.8-20.8c11.5,0,20.8,9.3,20.8,20.8Z"/><path id="_パス_22-6" class="cls-1" d="M44.13,82.18c-.5,.4-1.1,.7-1.6,1-2.7,1.5-5.6,2.4-8.7,2.7-.4,0-.9,.1-1.3,.1-1.7-3.8-4.2-7.3-5.2-7.7-1.1-.5-3.4,.6-5.3,.3s-1.2-3.3-1.4-3.9-.8-.5-1-1,.5-1,.5-1c-1.5-.5-1.1-.9-.9-2.1s-.1-.9-1.7-1.7,0-2.7,1.1-4.4c.6-.9,.9-2,.8-3.1-.9,0-1.7-.3-2.4-.8,.7,.4,1.5,.5,2.4,.5,0-.7-.1-1.6-.2-2.8-.2-3.5,2.3-7.6,2.3-7.6,7.5-7.2,17.8-3.7,20.7,0,2.9,3.7,1.4,14.2,1.1,15.9s-2.5,6.5-1.9,10c.6,2.1,1.5,4,2.7,5.6Z"/><path id="_パス_23-6" class="cls-4" d="M52.93,65.18c0,6.6-3.2,12.9-8.5,16.8-.1,.1-.2,.1-.2,.2-.6,.4-1.1,.8-1.7,1.1-2.7,1.5-5.6,2.4-8.7,2.7-1.5-3.7-1.2-7.8,.8-11.3,2.7-4.2,2.4-13.4-5.1-13.8-7.5-.4-10.7-4.2-10.7-4.2-1.1-4.8,1.6-8.2,4.1-10.1,.1-.1,.2-.1,.3-.1h0c.6-.3,1.2-.5,1.8-.8,1-.4,2-.6,3-.9,.5-.1,1-.2,1.5-.3,.9-.1,1.7-.2,2.6-.2,8.5,0,16.1,5.1,19.3,13,.2,.5,.4,1,.6,1.5,.6,2.2,.9,4.3,.9,6.4Z"/><path id="_パス_24-6" class="cls-1" d="M47.03,72.98c-.2,2.3-.8,4.6-1.6,6.7-.3,.8-.6,1.5-.9,2.2-.1,.1-.2,.1-.2,.2,.3-.8,.7-1.6,.9-2.5,.8-2.2,1.2-4.4,1.4-6.7,.1-2.3-.3-4.5-1.2-6.6-1-2-2.4-3.8-4.1-5.3-1.7-1.4-3.7-2.7-5.7-3.7-1-.5-2-1-3.1-1.5l-1.6-.7c-.5-.3-1.1-.5-1.6-.8-1.1-.6-2.1-1.3-3-2-1-.8-1.8-1.8-2.4-2.9-.5-1-.7-2-.8-3.1h0c.6-.3,1.2-.5,1.8-.8v.2c-.1,1,0,2,.4,2.9,1.1,1.9,2.7,3.4,4.6,4.4,.5,.3,1,.5,1.5,.8l1.5,.7c1.1,.5,2.1,1,3.1,1.6,2.1,1.1,4,2.5,5.8,4,1.8,1.6,3.2,3.5,4.2,5.7,.9,2.5,1.2,4.9,1,7.2Z"/><path id="_パス_25-6" class="cls-1" d="M52.03,58.88c-.4-.5-.9-.9-1.4-1.3-1.2-1-2.5-1.8-3.8-2.6l-1-.5c-.2-.1-.3-.2-.5-.2l-.5-.2-1.1-.4-1.1-.3c-.8-.4-1.5-.5-2.3-.7l-2.3-.6c-1.6-.5-3.1-1.1-4.5-1.9-2.3-1.3-4.2-3.2-5.5-5.5,.5-.1,1-.2,1.5-.3,.4,.6,.8,1.1,1.2,1.6,1,1.1,2.2,2,3.5,2.8,1.3,.8,2.7,1.4,4.1,1.8l2.2,.6c.8,.2,1.6,.4,2.3,.7l1.1,.4,1.1,.5,.5,.2c.2,.1,.4,.2,.5,.3l1,.6c1.4,.8,2.6,1.8,3.8,2.9,.1,.1,.2,.2,.3,.3,.5,.8,.7,1.3,.9,1.8Z"/></g><g id="_グループ_11-6"><g id="_グループ_10-6"><path id="_パス_26-6" d="M17.07,93.78v-.9c0-.6-.1-1.2-.1-1.2,0,0,0-.1,.1-.1h0s.1,0,.1,.1c.5,1.1,1,2.1,2.4,2.1,.8,0,1.3-.5,1.3-1.1s-.4-1-1.4-1.2l-.6-.2c-1.2-.3-1.7-.9-1.7-1.7,.1-1,1-1.8,2-1.7h.1c.6,.1,1.2,.2,1.8,.5,.2,0,.2-.1,.2-.3,0-.1,0-.2,.1-.2,0,0,.1,0,.1,.1h0v.8c0,.3,.1,1,.1,1,0,0,0,.1-.1,.1s-.1,0-.1-.1c-.4-1-1-1.8-2.1-1.8-.8,0-1.2,.4-1.2,1s.4,.9,1.3,1.1l.8,.2c1.2,.3,1.8,.8,1.8,1.8-.1,1.1-1,2-2.2,2h-.1c-.7-.1-1.4-.2-2-.4-.1,0-.3,.1-.3,.3q0,.1-.1,.1c-.1,0-.2-.2-.2-.3Z"/><path id="_パス_27-6" d="M30.87,87.88h1s.1,0,.1,.1,0,.1-.2,.1c-.3,.1-.3,.3-.3,1.9v1.5c0,2,0,2.2,.3,2.3,.1,0,.2,.1,.2,.1,0,0,0,.1-.1,.1s-.8-.1-1.3-.1c-.4,0-1,.1-1.1,.1s-.1,0-.1-.1,.1-.1,.2-.1c.4-.2,.4-.5,.4-2.2v-3.1l-.1,.1c-.1,.2-.4,.9-.9,2.3-.5,1.1-.9,2.3-1.2,3,0,.1-.1,.1-.1,.1l-.1-.1-2.3-5q0-.1-.1-.1c-.1,0,0,0,0,0v2.8c0,1.9,.1,1.9,.8,2,.1,0,.2,.1,.2,.1,0,0,0,.1-.1,.1s-.7-.1-1-.1-.8,.1-.9,.1-.1,0-.1-.1,0-.1,.2-.1c.6-.2,.8-.2,.8-2.1v-2.7c0-.5-.1-.7-.5-.8q-.1,0-.1-.1t.1-.1h1.7c.1,0,.2,0,.3,.2l1.6,3.6c.2,.4,.2,.5,.3,.5s.1-.1,.3-.6l1.4-3.4c.1-.2,.2-.3,.4-.3s0,.1,.3,.1Z"/><path id="_パス_28-6" d="M34.57,93.78q0-.1,.2-.1c.3-.1,.3-.4,.3-2.8s0-2.7-.3-2.8c-.1,0-.2-.1-.2-.1,0,0,0-.1,.1-.1h0c.1,0,.6,.1,1.1,.1s1-.1,1.1-.1c0,0,.1,0,.1,.1h0q0,.1-.2,.1c-.3,.1-.3,.4-.3,2.8s0,2.7,.3,2.8c.1,.1,.2,.1,.2,.1,0,0,0,.1-.1,.1s-.7-.1-1.1-.1h-1.2Z"/><path id="_パス_29-6" d="M41.87,87.78q.1,0,0,0c.1,.1,0,.1-.1,.2-.3,.1-.3,.4-.3,2.9,0,2,0,2.2,.1,2.4s.4,.2,.9,.2c.9,0,1.6-.4,1.9-2q0-.1,.1-.1t.1,.1c-.1,.7-.2,1.3-.2,1.7s.2,.3,.2,.4c0,0,0,.1-.1,.1h-4.8s-.1,0-.1-.1,0,0,.2-.1c.3-.1,.3-.3,.3-2.7,0-2.6,0-2.8-.3-2.9-.1-.1-.2-.1-.2-.1,0,0,0-.1,.1-.1s.5,.1,1,.1c.6,.1,1.1,0,1.2,0Z"/><path id="_パス_30-6" d="M46.57,93.68s0-.1,.1-.1c.4-.1,.5-.3,.8-1.1,.5-1.3,1.2-3.2,1.4-4,0-.1,.1-.1,.1-.2,0,0,0-.1-.2-.1-.1,0-.2-.1-.2-.1,0,0,0-.1,.1-.1,.6,0,1.2-.1,1.7-.3,0,0,.1,0,.1,.1h0c0,.1-.1,.1-.1,.2s0,.2,.1,.3c.4,1,1.2,3.2,1.7,4.5,.2,.5,.3,.7,.6,.8l.2,.1s0,.1-.1,.1-.8-.1-1.4-.1c-.5,0-1.2,.1-1.3,.1s-.1,0-.1-.1,0-.1,.2-.1c.3-.1,.4-.3,.4-.4-.1-.4-.2-.9-.3-1.3,0-.1-.1-.2-.2-.2h-2.2q-.1,0-.1,.1c-.1,.4-.2,.7-.3,.8,0,.1-.1,.3-.1,.4,0,.3,.2,.4,.5,.5q.1,0,.1,.1t-.1,.1c-.1,0-.6-.1-.9-.1,0,.2-.4,.2-.5,.1q0,.1,0,0Zm1.5-2.1h2q.1,0,.1-.1v-.1c-.4-1-.8-2.1-1-2.8-.1-.1-.1-.2-.1-.2l-.1,.1c-.3,.9-.7,1.9-1,2.8q.1,.2,.1,.3h0Z"/></g></g></g></g></g></g></svg>