<?xml version="1.0" encoding="UTF-8"?><svg id="_レイヤー_2" xmlns="http://www.w3.org/2000/svg" viewBox="0 0 5472.83 761.54"><defs><style>.cls-1{fill:#231815;}</style></defs><g id="_饑1"><g><path class="cls-1" d="M4081.82,509.9h110.87c7.21,0,13.06-6.68,13.06-14.93v-.3c0-8.25-5.85-14.93-13.06-14.93h-110.87c-7.21,0-13.06,6.68-13.06,14.93v.3c0,8.25,5.85,14.93,13.06,14.93Z"/><path class="cls-1" d="M3629.95,509.9h110.87c7.21,0,13.06-6.68,13.06-14.93v-.3c0-8.25-5.85-14.93-13.06-14.93h-110.87c-7.21,0-13.06,6.68-13.06,14.93v.3c0,8.25,5.85,14.93,13.06,14.93Z"/><path class="cls-1" d="M3404.01,509.9h110.87c7.21,0,13.06-6.68,13.06-14.93v-.3c0-8.25-5.85-14.93-13.06-14.93h-110.87c-7.21,0-13.06,6.68-13.06,14.93v.3c0,8.25,5.85,14.93,13.06,14.93Z"/><path class="cls-1" d="M3178.07,509.9h110.87c7.21,0,13.06-6.68,13.06-14.93v-.3c0-8.25-5.85-14.93-13.06-14.93h-110.87c-7.21,0-13.06,6.68-13.06,14.93v.3c0,8.25,5.85,14.93,13.06,14.93Z"/><path class="cls-1" d="M4418.63,479.74h-110.87c-7.21,0-13.06,6.68-13.06,14.93v.3c0,8.25,5.85,14.93,13.06,14.93h110.87c7.21,0,13.06-6.68,13.06-14.93v-.3c0-8.25-5.85-14.93-13.06-14.93Z"/><path class="cls-1" d="M2952.13,509.9h110.87c7.21,0,13.06-6.68,13.06-14.93v-.3c0-8.25-5.85-14.93-13.06-14.93h-110.87c-7.21,0-13.06,6.68-13.06,14.93v.3c0,8.25,5.85,14.93,13.06,14.93Z"/><path class="cls-1" d="M3855.88,509.9h110.87c7.21,0,13.06-6.68,13.06-14.93v-.3c0-8.25-5.85-14.93-13.06-14.93h-110.87c-7.21,0-13.06,6.68-13.06,14.93v.3c0,8.25,5.85,14.93,13.06,14.93Z"/></g><path class="cls-1" d="M2725.26,509.9h110.87c7.21,0,13.06-6.68,13.06-14.93v-.3c0-8.25-5.85-14.93-13.06-14.93h-110.87c-7.21,0-13.06,6.68-13.06,14.93v.3c0,8.25,5.85,14.93,13.06,14.93Z"/><path class="cls-1" d="M2273.38,509.9h110.87c7.21,0,13.06-6.68,13.06-14.93v-.3c0-8.25-5.85-14.93-13.06-14.93h-110.87c-7.21,0-13.06,6.68-13.06,14.93v.3c0,8.25,5.85,14.93,13.06,14.93Z"/><path class="cls-1" d="M2047.44,509.9h110.87c7.21,0,13.06-6.68,13.06-14.93v-.3c0-8.25-5.85-14.93-13.06-14.93h-110.87c-7.21,0-13.06,6.68-13.06,14.93v.3c0,8.25,5.85,14.93,13.06,14.93Z"/><path class="cls-1" d="M1821.5,509.9h110.87c7.21,0,13.06-6.68,13.06-14.93v-.3c0-8.25-5.85-14.93-13.06-14.93h-110.87c-7.21,0-13.06,6.68-13.06,14.93v.3c0,8.25,5.85,14.93,13.06,14.93Z"/><path class="cls-1" d="M1595.56,509.9h110.87c7.21,0,13.06-6.68,13.06-14.93v-.3c0-8.25-5.85-14.93-13.06-14.93h-110.87c-7.21,0-13.06,6.68-13.06,14.93v.3c0,8.25,5.85,14.93,13.06,14.93Z"/><path class="cls-1" d="M2499.32,509.9h110.87c7.21,0,13.06-6.68,13.06-14.93v-.3c0-8.25-5.85-14.93-13.06-14.93h-110.87c-7.21,0-13.06,6.68-13.06,14.93v.3c0,8.25,5.85,14.93,13.06,14.93Z"/><path class="cls-1" d="M1369.63,509.9h110.87c7.21,0,13.06-6.68,13.06-14.93v-.3c0-8.25-5.85-14.93-13.06-14.93h-110.87c-7.21,0-13.06,6.68-13.06,14.93v.3c0,8.25,5.85,14.93,13.06,14.93Z"/><path class="cls-1" d="M917.75,509.9h110.87c7.21,0,13.06-6.68,13.06-14.93v-.3c0-8.25-5.85-14.93-13.06-14.93h-110.87c-7.21,0-13.06,6.68-13.06,14.93v.3c0,8.25,5.85,14.93,13.06,14.93Z"/><path class="cls-1" d="M691.81,509.9h110.87c7.21,0,13.06-6.68,13.06-14.93v-.3c0-8.25-5.85-14.93-13.06-14.93h-110.87c-7.21,0-13.06,6.68-13.06,14.93v.3c0,8.25,5.85,14.93,13.06,14.93Z"/><path class="cls-1" d="M465.87,509.9h110.87c7.21,0,13.06-6.68,13.06-14.93v-.3c0-8.25-5.85-14.93-13.06-14.93h-110.87c-7.21,0-13.06,6.68-13.06,14.93v.3c0,8.25,5.85,14.93,13.06,14.93Z"/><path class="cls-1" d="M239.93,509.9h110.87c7.21,0,13.06-6.68,13.06-14.93v-.3c0-8.25-5.85-14.93-13.06-14.93h-110.87c-7.21,0-13.06,6.68-13.06,14.93v.3c0,8.25,5.85,14.93,13.06,14.93Z"/><path class="cls-1" d="M1143.69,509.9h110.87c7.21,0,13.06-6.68,13.06-14.93v-.3c0-8.25-5.85-14.93-13.06-14.93h-110.87c-7.21,0-13.06,6.68-13.06,14.93v.3c0,8.25,5.85,14.93,13.06,14.93Z"/><path class="cls-1" d="M13.06,509.9H123.93c7.21,0,13.06-6.68,13.06-14.93v-.3c0-8.25-5.85-14.93-13.06-14.93H13.06c-7.21,0-13.06,6.68-13.06,14.93v.3c0,8.25,5.85,14.93,13.06,14.93Z"/><path class="cls-1" d="M4822.77,391.5c-103.12-9.09-473.58-41.7-507.85-44.19-39.85-2.89-52.68,25.8-52.68,25.8,98.78,19.32,271.67,52.18,428.59,81.85,46.52-22.4,91.44-44,131.94-63.47Z"/><path class="cls-1" d="M5426.86,547.63c-24.9-18.5-76.47-26.57-76.47-26.57-63.45-8.23-326.23-51.67-362.75-58.82-17.86-3.5-36.41-12.73-50.73-21.26-6.07,4.68-10.59,8.36-12.72,10.12-14.13,20.34-29.71,32.86-41.2,40.13,88.53,16.67,148.86,27.99,148.86,27.99,28.24,4.57,72.04,14.15,121.96,38.84,49.93,24.69,37.99,34.78,59.7,105.4,28.5,92.73,102.38,96.26,111.33,97.42,22.39,2.9,132.41,1.23,146.99-111.23,6.07-46.78-16.93-80.12-44.98-102.01Zm13.38,105.76c-5.83,44.93-54.66,75.64-109.08,68.58-54.41-7.06-93.8-49.2-87.98-94.14,5.83-44.93,54.66-75.64,109.08-68.58,54.41,7.06,93.8,49.2,87.98,94.14Z"/><path class="cls-1" d="M5396.78,78.89c-43.19-104.85-149.89-78-170.77-69.4-8.35,3.44-78.79,25.97-82.33,122.91-2.69,73.83,11.45,80.49-30.39,117.26-41.84,36.77-81.67,57.36-107.76,69.08,0,0-200.09,95.98-397.56,191.16h191.14c38.09-13.89,62.5-22.79,62.5-22.79,0,0,28.51-9.84,52.47-45.22,0,0,35.41-30.01,68.8-47.66,32.9-17.39,270.7-135.34,329.85-159.7,0,0,47.73-21.15,66.99-45.46,21.43-28.41,35.01-66.57,17.05-110.18Zm-538.02,388.1c-14.16,5.83-30.36-.92-36.19-15.07-5.83-14.16,.92-30.36,15.07-36.19,14.16-5.83,30.36,.92,36.19,15.07,5.83,14.16-.92,30.36-15.07,36.19Zm445.91-269.84c-50.74,20.9-105.85,3.88-123.11-38.02-17.26-41.89,9.88-92.8,60.62-113.7,50.74-20.9,105.85-3.88,123.11,38.02,17.26,41.89-9.88,92.8-60.62,113.7Z"/></g></svg>